<svg id="Groupe_15" data-name="Groupe 15" xmlns="http://www.w3.org/2000/svg" xmlns:xlink="http://www.w3.org/1999/xlink" width="106.979" height="84.5" viewBox="0 0 106.979 84.5">
  <defs>
    <clipPath id="clip-path">
      <rect id="Rectangle_21" data-name="Rectangle 21" width="106.979" height="84.5" fill="none"/>
    </clipPath>
  </defs>
  <g id="Groupe_5" data-name="Groupe 5" clip-path="url(#clip-path)">
    <path id="Tracé_36" data-name="Tracé 36" d="M76,108.587H4.792A4.79,4.79,0,0,1,.154,102.6L17.558,35H94.945Z" transform="translate(0 -24.087)" fill="#0e448c"/>
    <path id="Tracé_37" data-name="Tracé 37" d="M174.347,25.032l8.66-11.47-8.774,1.5L178.11,0H130.142L110.474,76.393h47.968L169.8,32.262l5.448,1.316Z" transform="translate(-76.028 0)" fill="#bf9c5a"/>
    <path id="Tracé_38" data-name="Tracé 38" d="M265.093,45.588l-5.691-3.74,6.628-3.691,2.776-11.746,3.991,9.323,8.032-1.375-6.229,8.25.676,6.38-5.388-1.3L265.1,51.78Z" transform="translate(-178.519 -18.176)" fill="#0e448c"/>
    <path id="Tracé_39" data-name="Tracé 39" d="M86.216,25.183h24.429L103.2,53.893H78.771L77.7,58.22a2.371,2.371,0,0,0,.093.931l-.047.093c0,.062.015.093.047.093l-.047-.093a.417.417,0,0,1,.116.233.412.412,0,0,0,.117.233l.744,1.024V60.64c.186.093.333.163.442.21a1.737,1.737,0,0,1,.349.21h-.046v-.047a1.291,1.291,0,0,1,.279.047c.124.031.233.062.326.093H112.6l-7.492,28.943H70.813a7.155,7.155,0,0,1-1.908-.233,19.384,19.384,0,0,0-2.257-.442,9.343,9.343,0,0,1-1.419-.256q-.7-.187-1.28-.3a8.18,8.18,0,0,1-1.163-.326q-.582-.21-1.326-.558a18.781,18.781,0,0,1-1.675-.907l-.279-.139q-1.072-.652-2.326-1.443a6,6,0,0,1-1.768-1.535l-.093-.047q-1.21-1.256-2.42-2.676a15.275,15.275,0,0,1-2.047-3.094,10.369,10.369,0,0,1-1.629-3.048,26.619,26.619,0,0,1-.93-3.327,1.6,1.6,0,0,1-.21-.7q-.07-.511-.116-1.117l.046.093q-.232-1.908-.3-3.839a22.484,22.484,0,0,1,.256-4.118,6.005,6.005,0,0,1,.046-.674,2.6,2.6,0,0,1,.14-.628l-.046.14a4.843,4.843,0,0,1,.139-1.07c.093-.4.171-.745.233-1.023L59.646,15.877H88.635ZM47.967,62.222q.046-.093,0-.14ZM80.631,22.2H64.346L55.179,57.522Q52.34,68.365,58.064,76.088q5.584,7.678,16.519,7.678h25.825l4.234-16.286H78.817a7.961,7.961,0,0,1-3.653-.814,6.98,6.98,0,0,1-2.582-2.187,7.764,7.764,0,0,1-1.3-3.164,8.806,8.806,0,0,1,.186-3.792l2.559-9.958H98.5l4.188-16.053H78.212Zm-2.047,38.2a.516.516,0,0,0,.093.14.138.138,0,0,1,.046.093c.031-.093-.016-.17-.14-.233" transform="translate(-32.826 -10.926)" fill="#fff"/>
  </g>
</svg>
