<?xml version="1.0" standalone="no"?>
<!DOCTYPE svg PUBLIC "-//W3C//DTD SVG 20010904//EN"
 "http://www.w3.org/TR/2001/REC-SVG-20010904/DTD/svg10.dtd">
<svg version="1.0" xmlns="http://www.w3.org/2000/svg"
 width="260.000000pt" height="260.000000pt" viewBox="0 0 260.000000 260.000000"
 preserveAspectRatio="xMidYMid meet">
<metadata>
Created by potrace 1.14, written by Peter Selinger 2001-2017
</metadata>
<g transform="translate(0.000000,260.000000) scale(0.100000,-0.100000)"
fill="#000000" stroke="none">
<path d="M1311 2298 c-5 -13 -12 -38 -16 -55 -6 -33 -6 -33 30 -33 30 0 35 -3
31 -17 -3 -10 -14 -55 -26 -100 -11 -45 -23 -89 -26 -97 -6 -14 24 -16 290
-16 230 0 296 -3 296 -12 -1 -7 -40 -164 -88 -348 l-88 -335 -296 -3 -297 -2
-11 -43 c-6 -23 -13 -48 -15 -55 -5 -15 12 -53 29 -64 6 -4 192 -8 414 -8 221
0 402 -3 402 -6 0 -13 -160 -620 -173 -659 l-14 -40 -404 -3 c-470 -3 -544 4
-669 65 -131 64 -257 211 -293 343 -22 80 -29 194 -18 276 6 39 62 270 126
513 63 243 115 446 115 452 0 5 -42 9 -93 9 l-92 0 -214 -830 c-159 -619 -211
-839 -207 -864 3 -18 20 -46 37 -62 l30 -29 888 -3 889 -3 24 98 24 98 52 3
c48 3 52 5 60 35 5 18 66 257 137 532 71 275 130 502 132 504 2 3 33 -2 69
-11 l65 -16 -5 27 c-3 14 -8 61 -12 104 l-6 77 101 135 c56 74 98 135 94 135
-5 0 -46 -7 -93 -15 -47 -8 -90 -15 -96 -15 -6 0 8 71 33 168 23 92 43 173 43
180 0 9 -122 12 -575 12 l-575 0 -9 -22z"/>
<path d="M646 1593 c-131 -506 -141 -569 -111 -683 23 -88 59 -152 122 -216
118 -120 187 -134 643 -134 314 0 339 1 344 18 3 9 24 89 46 177 23 88 44 168
46 178 5 16 -15 17 -328 17 -303 0 -337 2 -374 19 -49 22 -79 61 -95 124 -10
43 -8 60 26 197 l37 150 297 2 296 3 42 160 c23 88 45 172 48 186 l6 27 -285
3 c-156 2 -288 7 -292 11 -4 5 5 53 19 107 15 55 27 102 27 105 0 3 -89 6
-198 6 l-198 0 -118 -457z"/>
</g>
</svg>
